Cover: 
 
http://www.shotpix.com/images/32409300381524351218.jpg


Release Title: The Muppets (2011) 


Ratings: 7.4/10 | 
 
http://www.imdb.com/title/tt1204342/


Plot: With the help of three fans, The Muppets must reunite to save their old theater from a greedy oil tycoon.

Director: James Bobin

Writers: Jason Segel & Nicholas Stoller

Stars:   Amy Adams, Jason Segel and Chris Cooper

Genres: Comedy | Family | Musical


					


General
Format                         : MPEG-4
Format profile                 : Base Media / Version 2
File size                      : 627 MiB
Duration                       : 1h 42mn
Overall bit rate mode          : Variable
Overall bit rate               : 853 Kbps

Source                         : The.Muppets.2011.720p.BluRay.x264-SPARKS (Thanks!)

Video
ID                             : 1
Format                         : AVC
Format/Info                    : Advanced Video Codec
Duration                       : 1h 42mn
Bit rate mode                  : Variable
Bit rate                       : 752 Kbps
Width                          : 1 280 pixels
Height                         : 720 pixels
Display aspect ratio           : 16:9
Frame rate mode                : Variable
Frame rate                     : 23.976 fps
Bit depth                      : 8 bits
Scan type                      : Progressive
Stream size                    : 552 MiB (88%)
Writing library                : x264 core 125


Audio
ID                             : 2
Format                         : AAC
Format/Info                    : Advanced Audio Codec
Format profile                 : LC
Duration                       : 1h 42mn
Bit rate mode                  : Variable
Bit rate                       : 96.0 Kbps
Channel(s)                     : 2 channels
Channel positions              : Front: L R
Sampling rate                  : 48.0 KHz
Stream size                    : 70.4 MiB (11%)
Language                       : English

Subtitle                       : Yes (English)


Screens:

 
http://www.shotpix.com/images/64026916326867255020.png 
http://www.shotpix.com/images/08519177202255058962.png 
http://www.shotpix.com/images/17261622157979250441.png 
http://www.shotpix.com/images/74320143668169413502.png 
http://www.shotpix.com/images/41265433211343112570.png 
http://www.shotpix.com/images/38020499204517591414.png

------------------------------------------------------------------------


Notes:

* Check sample for quality assurance.
* Best played on VLC Media Player.
* Install shark007 codecs in case of any kind of problem in playback (For non-VLC Media Player users).
* Alternatively, install Core AVC codecs, the fastest decoder that there is coupled with Community Center Codec Pack and play on Windows Media Player Classic.
* Read NFO.
* Help in seeding this torrent as much as you can. 


Greets to: srkfan, VYTO, MgB, staff members at ExtraTorrent, TPB,KAT, 1337x, PublicHD, Ahashare,
SilverTorrent, TorrentMafia, P2PDL, and all others


Encoder Notes: Looking For Early Access To Anything You Can Provide DVDScr, R5, DVDRips, BluRay, Direct Audio, Early Music
Releases, Seedboxes, Links, Dedicated Servers anything u can provide, Advance / Promo CDs/DVDs. If You Got anything to
offer contact me at "contact@tinym.eu"


Facebook Fan Page: www . facebook . com / p2pdl


Enhanced for best viewing experience. Enjoy!